<?xml version="1.0" encoding="utf-8"?>
<!-- Generator: Adobe Illustrator 23.0.0, SVG Export Plug-In . SVG Version: 6.00 Build 0)  -->
<svg version="1.1" id="Logotyp" xmlns="http://www.w3.org/2000/svg" xmlns:xlink="http://www.w3.org/1999/xlink" x="0px" y="0px"
	 viewBox="0 0 971.12 971.12" style="enable-background:new 0 0 971.12 971.12;" xml:space="preserve">
<style type="text/css">
	.st0{fill:none;stroke:#000000;stroke-width:104;stroke-miterlimit:10;}
</style>
<g>
	<rect x="347.28" y="315.05" width="252.65" height="54.06"/>
	<path d="M655.46,318.46c10.92-68.53,10.92-103.1,10.92-103.1c-72.78-163.75-327.5-58.22-327.5-58.22
		c4.85,134.03-6.06,154.17-6.06,154.17c-210.45,37.12-57.01,118.75-57.01,118.75s17.71,9.19,46.32,21.81
		c25.54-61.08,70.76-101.69,122.29-101.69c69.81,0,128.04,74.51,141.44,173.51c46.15,1.47,88.5-6.55,119.35-30.56
		C828.31,397.3,655.46,318.46,655.46,318.46z"/>
	<circle class="st0" cx="485.56" cy="485.56" r="433.56"/>
	<path d="M221.8,867.31c0,0,0.37-24.31,2.71-62.53C218.94,834.71,216.56,859.26,221.8,867.31z M276.43,847.7
		c0.02,6.32,0.2,10.29,0.58,11.12C277.48,859.85,277.2,855.62,276.43,847.7z M653.03,385.76
		c-101.89-60.65-304.46-26.69-304.46-26.69c-91.06,79.17-116.88,328.2-124.07,445.7c9.41-50.59,27.92-116.53,34.12-144.12
		c0.45,38.44,14.28,150.97,17.8,187.05c-0.16-44.93,7.62-208.45,10.28-199.94c3.03,9.7,6.06,207.42,6.06,207.42
		c-0.44,3.43-2.7,17.09-5.87,35.87h149.44c22.75-60.58,41.9-113.14,36.61-113.5c-9.05-0.61-34.01-4.85-45.53-10.92
		c-11.52-6.06-20.62-30.32-20.62-30.32c-31.54-30.93-35.18-60.65-35.18-60.65c-18.62-56.38-24.45-57.62-26.89-88
		c-0.67-6.62-3.06-24.63-10.71-46.64c-10.31-13.95-16.38-29.11-6.31-86.12c10.06-57.01,104.57-85.51,113.06-81.27
		s68.81,141.11,68.81,141.11s28.84,82.68,28.23,214.29c-0.25,54.24-16.78,112.39-36.12,162.02h140.91
		c21.11-59.07,43.91-121.16,46.84-141.4c6.06-41.85,27.9-9.7,27.9-9.7S754.92,446.41,653.03,385.76z"/>
</g>
</svg>
